<svg width="190" height="56" viewBox="0 0 190 56" fill="none" xmlns="http://www.w3.org/2000/svg">
<path d="M41.9469 33.7446C42.154 33.7446 42.3225 33.5742 42.3225 33.3632C42.3225 33.1521 42.1546 32.9817 41.9469 32.9817H37.3717C37.1646 32.9817 36.9961 33.1521 36.9961 33.3632C36.9961 33.5742 37.1639 33.7446 37.3717 33.7446H41.9469Z" fill="#FF6600"/>
<path d="M41.9469 26.2379C42.154 26.2379 42.3225 26.0675 42.3225 25.8565C42.3225 25.6461 42.1546 25.475 41.9469 25.475H37.3717C37.1646 25.475 36.9961 25.6454 36.9961 25.8565C36.9961 26.0669 37.1639 26.2379 37.3717 26.2379H41.9469Z" fill="#FF6600"/>
<path d="M41.9469 18.8801C42.154 18.8801 42.3225 18.7096 42.3225 18.4985C42.3225 18.2882 42.1546 18.1171 41.9469 18.1171H37.3717C37.1646 18.1171 36.9961 18.2876 36.9961 18.4985C36.9961 18.7089 37.1639 18.8801 37.3717 18.8801H41.9469Z" fill="#FF6600"/>
<path fill-rule="evenodd" clip-rule="evenodd" d="M39.6893 38.5315H44.6488L46.1638 40.6764H39.6893H33.2148L34.7299 38.5315H39.6893Z" fill="#FF6600"/>
<path fill-rule="evenodd" clip-rule="evenodd" d="M12.8438 33.6905L17.652 29.7491H19.2542V33.6905V35.575V41.829H12.8438V33.6905Z" fill="#FF6600"/>
<path fill-rule="evenodd" clip-rule="evenodd" d="M23.8978 41.7856V42H22.2109V17.0699L33.1767 15.2281L46.504 17.841V29.7491H48.2748V14.3278L50.89 13L59.1566 15.9985V41.7856H23.8978ZM33.2187 26.1093H28.5582V40.5011H23.8978L23.9824 18.8265L33.2187 17.3269V26.1093ZM51.1204 40.096H57.533V16.8697L51.2476 14.7296L51.1204 14.8635V29.6435C51.1204 29.7253 51.1144 29.8065 51.1024 29.885L51.1204 29.9851V40.096Z" fill="#FF6600"/>
<path fill-rule="evenodd" clip-rule="evenodd" d="M6 41.9622H66V40.5005H6V41.9622Z" fill="#FF6600"/>
<path d="M73 35.7857V13.6905H79.9144C81.5198 13.6905 82.832 14.0033 83.8512 14.6291C84.877 15.2476 85.6364 16.0856 86.1294 17.1429C86.6223 18.2001 86.8688 19.3797 86.8688 20.6815C86.8688 21.9834 86.6223 23.1665 86.1294 24.231C85.6431 25.2955 84.8904 26.1442 83.8712 26.7772C82.852 27.4029 81.5464 27.7158 79.9544 27.7158H74.9984V25.3423H79.8744C80.9735 25.3423 81.8562 25.1373 82.5223 24.7273C83.1884 24.3173 83.6713 23.7635 83.9711 23.0658C84.2775 22.361 84.4307 21.5662 84.4307 20.6815C84.4307 19.7969 84.2775 19.0057 83.9711 18.308C83.6713 17.6104 83.1851 17.0637 82.5123 16.6682C81.8395 16.2654 80.9469 16.064 79.8345 16.064H75.478V35.7857H73Z" fill="#0C0A0A"/>
<path d="M95.0571 36.1741C94.0846 36.1741 93.202 35.9763 92.4093 35.5807C91.6166 35.178 90.9871 34.599 90.5208 33.8438C90.0545 33.0813 89.8214 32.1607 89.8214 31.0818C89.8214 30.1324 89.9946 29.3628 90.3409 28.7731C90.6873 28.1761 91.1503 27.7086 91.7298 27.3705C92.3093 27.0325 92.9488 26.7808 93.6483 26.6153C94.3544 26.4427 95.0638 26.3061 95.7765 26.2054C96.7091 26.0759 97.4652 25.9788 98.0447 25.9141C98.6309 25.8421 99.0572 25.7235 99.3237 25.558C99.5968 25.3926 99.7333 25.1049 99.7333 24.6949V24.6086C99.7333 23.5441 99.4635 22.717 98.924 22.1272C98.3911 21.5374 97.5817 21.2426 96.4959 21.2426C95.3702 21.2426 94.4876 21.5087 93.8481 22.0409C93.2086 22.5732 92.759 23.1414 92.4992 23.7455L90.261 22.8824C90.6607 21.8755 91.1936 21.0915 91.8597 20.5305C92.5325 19.9623 93.2652 19.5667 94.0579 19.3437C94.8573 19.1136 95.6433 18.9985 96.416 18.9985C96.9089 18.9985 97.4752 19.0632 98.1146 19.1927C98.7608 19.315 99.3836 19.5703 99.9831 19.9587C100.589 20.3471 101.092 20.9333 101.492 21.7173C101.892 22.5012 102.091 23.5513 102.091 24.8676V35.7857H99.7333V33.5417H99.6134C99.4536 33.9013 99.1871 34.2861 98.8141 34.6961C98.441 35.106 97.9448 35.4549 97.3253 35.7426C96.7058 36.0303 95.9497 36.1741 95.0571 36.1741ZM95.4168 33.8869C96.3494 33.8869 97.1354 33.6891 97.7749 33.2935C98.4211 32.8979 98.9073 32.3873 99.2337 31.7615C99.5668 31.1358 99.7333 30.4777 99.7333 29.7872V27.4568C99.6334 27.5863 99.4136 27.705 99.0739 27.8129C98.7408 27.9136 98.3544 28.0035 97.9148 28.0826C97.4818 28.1545 97.0588 28.2192 96.6458 28.2768C96.2395 28.3271 95.9098 28.3703 95.6566 28.4062C95.0438 28.4926 94.4709 28.6328 93.938 28.827C93.4118 29.014 92.9855 29.2981 92.6591 29.6793C92.3393 30.0533 92.1794 30.564 92.1794 31.2113C92.1794 32.096 92.4825 32.7649 93.0887 33.218C93.7015 33.6639 94.4776 33.8869 95.4168 33.8869Z" fill="#0C0A0A"/>
<path d="M106.395 35.7857V19.2143H108.754V35.7857H106.395ZM107.594 16.4524C107.135 16.4524 106.738 16.2834 106.405 15.9453C106.079 15.6073 105.916 15.2009 105.916 14.7262C105.916 14.2515 106.079 13.8451 106.405 13.5071C106.738 13.169 107.135 13 107.594 13C108.054 13 108.447 13.169 108.773 13.5071C109.107 13.8451 109.273 14.2515 109.273 14.7262C109.273 15.2009 109.107 15.6073 108.773 15.9453C108.447 16.2834 108.054 16.4524 107.594 16.4524Z" fill="#0C0A0A"/>
<path d="M123.944 22.9256L121.825 23.5729C121.692 23.1917 121.496 22.8213 121.236 22.4617C120.983 22.0949 120.636 21.7928 120.197 21.5554C119.757 21.3181 119.194 21.1994 118.508 21.1994C117.569 21.1994 116.786 21.4332 116.16 21.9007C115.541 22.361 115.231 22.9472 115.231 23.6592C115.231 24.2922 115.444 24.792 115.87 25.1589C116.297 25.5257 116.963 25.8313 117.869 26.0759L120.147 26.6801C121.519 27.0397 122.541 27.5899 123.214 28.3307C123.887 29.0644 124.223 30.0102 124.223 31.1682C124.223 32.1176 123.97 32.9663 123.464 33.7143C122.964 34.4623 122.265 35.0521 121.366 35.4836C120.467 35.9152 119.421 36.131 118.228 36.131C116.663 36.131 115.367 35.7641 114.341 35.0305C113.316 34.2969 112.666 33.2252 112.393 31.8155L114.631 31.2113C114.844 32.1032 115.247 32.7721 115.84 33.218C116.44 33.6639 117.222 33.8869 118.188 33.8869C119.287 33.8869 120.16 33.6352 120.806 33.1317C121.459 32.621 121.785 32.0097 121.785 31.2976C121.785 30.7222 121.599 30.2403 121.226 29.8519C120.853 29.4563 120.28 29.1615 119.507 28.9673L116.949 28.3199C115.544 27.9603 114.511 27.4029 113.852 26.6477C113.199 25.8853 112.873 24.9323 112.873 23.7887C112.873 22.8537 113.116 22.0265 113.602 21.3073C114.095 20.588 114.764 20.0234 115.61 19.6135C116.463 19.2035 117.429 18.9985 118.508 18.9985C120.027 18.9985 121.219 19.3581 122.085 20.0774C122.958 20.7966 123.577 21.746 123.944 22.9256Z" fill="#0C0A0A"/>
<path d="M130.131 13.6905V35.7857H127.773V13.6905H130.131Z" fill="#0C0A0A"/>
<path d="M135.969 42C135.569 42 135.213 41.964 134.9 41.8921C134.587 41.8274 134.37 41.7626 134.25 41.6979L134.85 39.4539C135.423 39.6121 135.929 39.6696 136.369 39.6265C136.808 39.5833 137.198 39.3712 137.538 38.99C137.884 38.6159 138.2 38.0082 138.487 37.1667L138.927 35.872L133.251 19.2143H135.809L140.046 32.4196H140.206L144.442 19.2143H147L140.485 38.2024C140.192 39.0583 139.829 39.7667 139.396 40.3278C138.963 40.896 138.46 41.3167 137.887 41.59C137.321 41.8633 136.682 42 135.969 42Z" fill="#0C0A0A"/>
</svg>
