<svg width="190" height="56" viewBox="0 0 190 56" fill="none" xmlns="http://www.w3.org/2000/svg">
<path d="M41.9469 33.7446C42.154 33.7446 42.3225 33.5742 42.3225 33.3632C42.3225 33.1521 42.1546 32.9817 41.9469 32.9817H37.3717C37.1646 32.9817 36.9961 33.1521 36.9961 33.3632C36.9961 33.5742 37.1639 33.7446 37.3717 33.7446H41.9469Z" fill="#FF6600"/>
<path d="M41.9469 26.2379C42.154 26.2379 42.3225 26.0675 42.3225 25.8565C42.3225 25.6461 42.1546 25.475 41.9469 25.475H37.3717C37.1646 25.475 36.9961 25.6454 36.9961 25.8565C36.9961 26.0669 37.1639 26.2379 37.3717 26.2379H41.9469Z" fill="#FF6600"/>
<path d="M41.9469 18.8801C42.154 18.8801 42.3225 18.7096 42.3225 18.4985C42.3225 18.2882 42.1546 18.1171 41.9469 18.1171H37.3717C37.1646 18.1171 36.9961 18.2876 36.9961 18.4985C36.9961 18.7089 37.1639 18.8801 37.3717 18.8801H41.9469Z" fill="#FF6600"/>
<path fill-rule="evenodd" clip-rule="evenodd" d="M39.6893 38.5315H44.6488L46.1638 40.6764H39.6893H33.2148L34.7299 38.5315H39.6893Z" fill="#FF6600"/>
<path fill-rule="evenodd" clip-rule="evenodd" d="M12.8438 33.6905L17.652 29.7491H19.2542V33.6905V35.575V41.829H12.8438V33.6905Z" fill="#FF6600"/>
<path fill-rule="evenodd" clip-rule="evenodd" d="M23.8978 41.7856V42H22.2109V17.0699L33.1767 15.2281L46.504 17.841V29.7491H48.2748V14.3278L50.89 13L59.1566 15.9985V41.7856H23.8978ZM33.2187 26.1093H28.5582V40.5011H23.8978L23.9824 18.8265L33.2187 17.3269V26.1093ZM51.1204 40.096H57.533V16.8697L51.2476 14.7296L51.1204 14.8635V29.6435C51.1204 29.7253 51.1144 29.8065 51.1024 29.885L51.1204 29.9851V40.096Z" fill="#FF6600"/>
<path fill-rule="evenodd" clip-rule="evenodd" d="M6 41.9622H66V40.5005H6V41.9622Z" fill="#FF6600"/>
<path d="M75 35.7857V13.6905H81.9144C83.5198 13.6905 84.832 14.0033 85.8512 14.6291C86.877 15.2476 87.6364 16.0856 88.1294 17.1429C88.6223 18.2001 88.8688 19.3797 88.8688 20.6815C88.8688 21.9834 88.6223 23.1665 88.1294 24.231C87.6431 25.2955 86.8904 26.1442 85.8712 26.7772C84.852 27.4029 83.5464 27.7158 81.9544 27.7158H76.9984V25.3423H81.8744C82.9735 25.3423 83.8562 25.1373 84.5223 24.7273C85.1884 24.3173 85.6713 23.7635 85.9711 23.0658C86.2775 22.361 86.4307 21.5662 86.4307 20.6815C86.4307 19.7969 86.2775 19.0057 85.9711 18.308C85.6713 17.6104 85.1851 17.0637 84.5123 16.6682C83.8395 16.2654 82.9469 16.064 81.8345 16.064H77.478V35.7857H75Z" fill="white"/>
<path d="M97.0571 36.1741C96.0846 36.1741 95.202 35.9763 94.4093 35.5807C93.6166 35.178 92.9871 34.599 92.5208 33.8438C92.0545 33.0813 91.8214 32.1607 91.8214 31.0818C91.8214 30.1324 91.9946 29.3628 92.3409 28.7731C92.6873 28.1761 93.1503 27.7086 93.7298 27.3705C94.3093 27.0325 94.9488 26.7808 95.6483 26.6153C96.3544 26.4427 97.0638 26.3061 97.7765 26.2054C98.7091 26.0759 99.4652 25.9788 100.045 25.9141C100.631 25.8421 101.057 25.7235 101.324 25.558C101.597 25.3926 101.733 25.1049 101.733 24.6949V24.6086C101.733 23.5441 101.464 22.717 100.924 22.1272C100.391 21.5374 99.5817 21.2426 98.4959 21.2426C97.3702 21.2426 96.4876 21.5087 95.8481 22.0409C95.2086 22.5732 94.759 23.1414 94.4992 23.7455L92.261 22.8824C92.6607 21.8755 93.1936 21.0915 93.8597 20.5305C94.5325 19.9623 95.2652 19.5667 96.0579 19.3437C96.8573 19.1136 97.6433 18.9985 98.416 18.9985C98.9089 18.9985 99.4752 19.0632 100.115 19.1927C100.761 19.315 101.384 19.5703 101.983 19.9587C102.589 20.3471 103.092 20.9333 103.492 21.7173C103.892 22.5012 104.091 23.5513 104.091 24.8676V35.7857H101.733V33.5417H101.613C101.454 33.9013 101.187 34.2861 100.814 34.6961C100.441 35.106 99.9448 35.4549 99.3253 35.7426C98.7058 36.0303 97.9497 36.1741 97.0571 36.1741ZM97.4168 33.8869C98.3494 33.8869 99.1354 33.6891 99.7749 33.2935C100.421 32.8979 100.907 32.3873 101.234 31.7615C101.567 31.1358 101.733 30.4777 101.733 29.7872V27.4568C101.633 27.5863 101.414 27.705 101.074 27.8129C100.741 27.9136 100.354 28.0035 99.9148 28.0826C99.4818 28.1545 99.0588 28.2192 98.6458 28.2768C98.2395 28.3271 97.9098 28.3703 97.6566 28.4062C97.0438 28.4926 96.4709 28.6328 95.938 28.827C95.4118 29.014 94.9855 29.2981 94.6591 29.6793C94.3393 30.0533 94.1794 30.564 94.1794 31.2113C94.1794 32.096 94.4825 32.7649 95.0887 33.218C95.7015 33.6639 96.4776 33.8869 97.4168 33.8869Z" fill="white"/>
<path d="M108.395 35.7857V19.2143H110.754V35.7857H108.395ZM109.594 16.4524C109.135 16.4524 108.738 16.2834 108.405 15.9453C108.079 15.6073 107.916 15.2009 107.916 14.7262C107.916 14.2515 108.079 13.8451 108.405 13.5071C108.738 13.169 109.135 13 109.594 13C110.054 13 110.447 13.169 110.773 13.5071C111.107 13.8451 111.273 14.2515 111.273 14.7262C111.273 15.2009 111.107 15.6073 110.773 15.9453C110.447 16.2834 110.054 16.4524 109.594 16.4524Z" fill="white"/>
<path d="M125.944 22.9256L123.825 23.5729C123.692 23.1917 123.496 22.8213 123.236 22.4617C122.983 22.0949 122.636 21.7928 122.197 21.5554C121.757 21.3181 121.194 21.1994 120.508 21.1994C119.569 21.1994 118.786 21.4332 118.16 21.9007C117.541 22.361 117.231 22.9472 117.231 23.6592C117.231 24.2922 117.444 24.792 117.87 25.1589C118.297 25.5257 118.963 25.8313 119.869 26.0759L122.147 26.6801C123.519 27.0397 124.541 27.5899 125.214 28.3307C125.887 29.0644 126.223 30.0102 126.223 31.1682C126.223 32.1176 125.97 32.9663 125.464 33.7143C124.964 34.4623 124.265 35.0521 123.366 35.4836C122.467 35.9152 121.421 36.131 120.228 36.131C118.663 36.131 117.367 35.7641 116.341 35.0305C115.316 34.2969 114.666 33.2252 114.393 31.8155L116.631 31.2113C116.844 32.1032 117.247 32.7721 117.84 33.218C118.44 33.6639 119.222 33.8869 120.188 33.8869C121.287 33.8869 122.16 33.6352 122.806 33.1317C123.459 32.621 123.785 32.0097 123.785 31.2976C123.785 30.7222 123.599 30.2403 123.226 29.8519C122.853 29.4563 122.28 29.1615 121.507 28.9673L118.949 28.3199C117.544 27.9603 116.511 27.4029 115.852 26.6477C115.199 25.8853 114.873 24.9323 114.873 23.7887C114.873 22.8537 115.116 22.0265 115.602 21.3073C116.095 20.588 116.764 20.0234 117.61 19.6135C118.463 19.2035 119.429 18.9985 120.508 18.9985C122.027 18.9985 123.219 19.3581 124.085 20.0774C124.958 20.7966 125.577 21.746 125.944 22.9256Z" fill="white"/>
<path d="M132.131 13.6905V35.7857H129.773V13.6905H132.131Z" fill="white"/>
<path d="M137.969 42C137.569 42 137.213 41.964 136.9 41.8921C136.587 41.8274 136.37 41.7626 136.25 41.6979L136.85 39.4539C137.423 39.6121 137.929 39.6696 138.369 39.6265C138.808 39.5833 139.198 39.3712 139.538 38.99C139.884 38.6159 140.2 38.0082 140.487 37.1667L140.927 35.872L135.251 19.2143H137.809L142.046 32.4196H142.206L146.442 19.2143H149L142.485 38.2024C142.192 39.0583 141.829 39.7667 141.396 40.3278C140.963 40.896 140.46 41.3167 139.887 41.59C139.321 41.8633 138.682 42 137.969 42Z" fill="white"/>
</svg>
